<svg width="48" height="45" viewBox="0 0 48 45" fill="none" xmlns="http://www.w3.org/2000/svg">
<path d="M21.0457 7.23749L4.47397 33.75C4.1323 34.317 3.95151 34.9599 3.9496 35.6147C3.94769 36.2695 4.12471 36.9134 4.46307 37.4822C4.80142 38.0511 5.2893 38.5251 5.87818 38.8572C6.46706 39.1893 7.1364 39.3678 7.81962 39.375H40.9631C41.6463 39.3678 42.3157 39.1893 42.9046 38.8572C43.4934 38.5251 43.9813 38.0511 44.3197 37.4822C44.658 36.9134 44.8351 36.2695 44.8331 35.6147C44.8312 34.9599 44.6504 34.317 44.3088 33.75L27.737 7.23749C27.3882 6.68644 26.8971 6.23084 26.3111 5.91464C25.7251 5.59845 25.0639 5.43234 24.3914 5.43234C23.7188 5.43234 23.0577 5.59845 22.4716 5.91464C21.8856 6.23084 21.3945 6.68644 21.0457 7.23749V7.23749Z" stroke="#573775" stroke-width="2" stroke-linecap="round" stroke-linejoin="round"/>
<path d="M24.3914 16.875V24.375" stroke="#573775" stroke-width="2" stroke-linecap="round" stroke-linejoin="round"/>
<path d="M24.3914 31.875H24.4109" stroke="#573775" stroke-width="2" stroke-linecap="round" stroke-linejoin="round"/>
</svg>
