<svg width="66" height="61" viewBox="0 0 66 61" fill="none" xmlns="http://www.w3.org/2000/svg">
<path d="M11.88 29.052H17.496V54H11.88V29.052ZM30.4706 54.36C28.9106 54.336 27.6386 54.168 26.6546 53.856C25.6946 53.544 24.9266 53.112 24.3506 52.56C23.7986 51.984 23.4146 51.3 23.1986 50.508C23.0066 49.692 22.9106 48.78 22.9106 47.772V26.928L28.2746 26.064V46.692C28.2746 47.172 28.3106 47.604 28.3826 47.988C28.4546 48.372 28.5866 48.696 28.7786 48.96C28.9946 49.224 29.2946 49.44 29.6786 49.608C30.0626 49.776 30.5786 49.884 31.2266 49.932L30.4706 54.36ZM33.4013 44.676C33.4013 42.996 33.6533 41.532 34.1572 40.284C34.6853 39.012 35.3693 37.956 36.2093 37.116C37.0493 36.276 38.0093 35.64 39.0893 35.208C40.1933 34.776 41.3213 34.56 42.4733 34.56C45.1613 34.56 47.2853 35.388 48.8453 37.044C50.4053 38.676 51.1853 41.088 51.1853 44.28C51.1853 44.592 51.1733 44.94 51.1493 45.324C51.1253 45.684 51.1013 46.008 51.0773 46.296H38.9093C39.0293 47.4 39.5453 48.276 40.4573 48.924C41.3693 49.572 42.5933 49.896 44.1293 49.896C45.1133 49.896 46.0733 49.812 47.0093 49.644C47.9693 49.452 48.7493 49.224 49.3493 48.96L50.0693 53.316C49.7813 53.46 49.3973 53.604 48.9173 53.748C48.4373 53.892 47.8973 54.012 47.2973 54.108C46.7213 54.228 46.0973 54.324 45.4253 54.396C44.7533 54.468 44.0813 54.504 43.4093 54.504C41.7053 54.504 40.2173 54.252 38.9453 53.748C37.6973 53.244 36.6533 52.56 35.8133 51.696C34.9973 50.808 34.3853 49.764 33.9773 48.564C33.5933 47.364 33.4013 46.068 33.4013 44.676ZM46.0013 42.624C45.9773 42.168 45.8933 41.724 45.7493 41.292C45.6293 40.86 45.4253 40.476 45.1373 40.14C44.8733 39.804 44.5253 39.528 44.0933 39.312C43.6853 39.096 43.1693 38.988 42.5453 38.988C41.9453 38.988 41.4293 39.096 40.9973 39.312C40.5653 39.504 40.2053 39.768 39.9173 40.104C39.6293 40.44 39.4013 40.836 39.2333 41.292C39.0893 41.724 38.9813 42.168 38.9093 42.624H46.0013ZM47.8733 30.78L45.8933 33.156L42.2933 30.384L38.6933 33.156L36.6413 30.78L42.2933 25.848L47.8733 30.78Z" fill="#573775"/>
<line x1="1.9588" y1="28.9202" x2="29.9588" y2="1.92023" stroke="#573775" stroke-width="3"/>
<line x1="65.1762" y1="27.2536" x2="30.1762" y2="4.25356" stroke="#573775" stroke-width="3"/>
</svg>
